<?xml version="1.0" encoding="UTF-8"?>
<svg id="Capa_2" data-name="Capa 2" xmlns="http://www.w3.org/2000/svg" viewBox="0 0 90.31 28.05">
  <defs>
    <style>
      .cls-1 {
        fill: #b11827;
        stroke: #b11827;
        stroke-miterlimit: 10;
      }
    </style>
  </defs>
  <g id="Capa_1-2" data-name="Capa 1">
    <g>
      <g>
        <path class="cls-1" d="M27.88,1.4l-8.43,22.22c-1.85,2.96-9.14,3.13-10.59-.48L.72,1.4h6.59l6.98,18.36L21.54,1.4h6.34Z"/>
        <path class="cls-1" d="M67.96,1.4v13.45c.45.11.52-.19.78-.39,1.99-1.53,3.83-4.18,5.82-5.82h6.85l-7.21,7.67,7.73,9.4h-6.85c-1.83-2.03-3.93-4.11-5.33-6.44-.35-.28-1.78.76-1.78.88v5.56h-5.95V1.4h5.95Z"/>
        <path class="cls-1" d="M58.91,25.71h-5.95v-9.7c0-.36-.59-1.61-.89-1.95-1.89-2.13-6.87-.65-6.87,1.69v9.57l-.39.39h-5.82V8.64h5.95l.26,2.07c3.98-4.05,12.8-2.98,13.7,3.23,0,0,0,11.77,0,11.77Z"/>
        <rect class="cls-1" x="29.69" y="8.64" width="6.21" height="17.07"/>
        <path class="cls-1" d="M32.92.5c4.28.09,4.24,6.68-.51,6.33-4.01-.29-4.08-6.43.51-6.33Z"/>
      </g>
      <circle cx="87.52" cy="25.26" r="2.79"/>
    </g>
  </g>
</svg>